<svg width="48.000000" height="27.096680" viewBox="0 0 48 27.0967" fill="none" xmlns="http://www.w3.org/2000/svg" xmlns:xlink="http://www.w3.org/1999/xlink">
	<desc>
			Created with Pixso.
	</desc>
	<defs>
		<clipPath id="clip993_510">
			<rect id="bx:bx-stats" width="48.000000" height="27.096775" fill="white" fill-opacity="0"/>
		</clipPath>
	</defs>
	<rect id="bx:bx-stats" width="48.000000" height="27.096775" fill="#FFFFFF" fill-opacity="0"/>
	<g clip-path="url(#clip993_510)">
		<path id="Vector" d="M43.1504 12.2817C42.5752 12.2861 42.0049 12.396 41.4678 12.606L35.7275 7.82129C35.8691 7.2998 35.9688 6.75879 35.9688 6.18848C35.9688 2.81006 33.3027 0.0947266 29.9844 0.0947266C26.667 0.0947266 24 2.81006 24 6.18848C24 7.15332 24.2393 8.05322 24.6279 8.8623L17.6641 17.2422C17.3848 17.189 17.1025 17.1606 16.8193 17.1567C16.3906 17.1567 15.9863 17.23 15.5938 17.3374L9.45801 11.0898C9.56543 10.6929 9.6377 10.2808 9.6377 9.84473C9.6377 7.14404 7.50195 4.96973 4.84961 4.96973C2.19727 4.96973 0.0625 7.14404 0.0625 9.84473C0.0625 12.5454 2.19727 14.7192 4.84961 14.7192C5.27832 14.7192 5.68262 14.6465 6.0752 14.5391L12.2109 20.7861C12.0957 21.1909 12.0352 21.6104 12.0312 22.0317C12.0312 24.7324 14.167 26.9067 16.8193 26.9067C19.4717 26.9067 21.6064 24.7324 21.6064 22.0317C21.6064 21.4541 21.4912 20.9106 21.3125 20.396L28.2852 12.0063C28.8281 12.1675 29.3916 12.2817 29.9844 12.2817C30.9297 12.2769 31.8594 12.042 32.6973 11.5972L38.4395 16.3818C38.3945 16.6377 38.3691 16.897 38.3633 17.1567C38.3633 19.8574 40.498 22.0317 43.1504 22.0317C45.8027 22.0317 47.9385 19.8574 47.9385 17.1567C47.9385 14.4561 45.8027 12.2817 43.1504 12.2817Z" fill="#0D5C63" fill-opacity="1.000000" fill-rule="nonzero"/>
	</g>
</svg>
